<svg width="16" height="16" viewBox="0 0 16 16" fill="none" xmlns="http://www.w3.org/2000/svg">
  <path d="M1 2.5C1 2.22386 1.22386 2 1.5 2H6.5C6.77614 2 7 2.22386 7 2.5V10.5C7 10.6894 6.89392 10.8625 6.72361 10.9472C6.5533 11.032 6.34738 11.0136 6.19531 10.9L4 9.25L1.80469 10.9C1.65262 11.0136 1.4467 11.032 1.27639 10.9472C1.10608 10.8625 1 10.6894 1 10.5V2.5Z" fill="#42A5F5"/>
  <path d="M9 4.5C9 4.22386 9.22386 4 9.5 4H14.5C14.7761 4 15 4.22386 15 4.5V12.5C15 12.6894 14.8939 12.8625 14.7236 12.9472C14.5533 13.032 14.3474 13.0136 14.1953 12.9L12 11.25L9.80469 12.9C9.65262 13.0136 9.4467 13.032 9.27639 12.9472C9.10608 12.8625 9 12.6894 9 12.5V4.5Z" fill="#EF5350"/>
  <path d="M5 13.5C5 13.2239 5.22386 13 5.5 13H10.5C10.7761 13 11 13.2239 11 13.5V14.5C11 14.7761 10.7761 15 10.5 15H5.5C5.22386 15 5 14.7761 5 14.5V13.5Z" fill="#66BB6A"/>
</svg>
